{"accessors":[{"bufferView":2,"componentType":5126,"count":4,"max":[86.09410095214844,48.7505989074707,51.37879943847656],"min":[34.238197326660156,19.180500030517578,0],"type":"VEC3"},{"bufferView":2,"byteOffset":48,"componentType":5126,"count":4,"max":[-0.39197754859924316,-0.9002485275268555,0.18948915600776672],"min":[-0.39197754859924316,-0.9002485275268555,0.18948915600776672],"type":"VEC3"},{"bufferView":3,"componentType":5126,"count":4,"max":[0.9160627722740173,-0.40091636776924133,-0.009754367172718048,1],"min":[0.9160626530647278,-0.40091672539711,-0.009756368584930897,1],"type":"VEC4"},{"bufferView":0,"componentType":5125,"count":6,"max":[3],"min":[0],"type":"SCALAR"},{"bufferView":2,"byteOffset":96,"componentType":5126,"count":1948,"max":[35.847198486328125,31.53459930419922,56.81019973754883],"min":[0.06419944763183594,0,8.591400146484375],"type":"VEC3"},{"bufferView":2,"byteOffset":23472,"componentType":5126,"count":1948,"max":[0.9993554353713989,0.9959824085235596,0.999885082244873],"min":[-0.9991906881332397,-0.9979082345962524,-0.9978726506233215],"type":"VEC3"},{"bufferView":3,"byteOffset":64,"componentType":5126,"count":1948,"max":[0.9996957182884216,0.9985570311546326,0.9998739361763,1],"min":[-0.9998078346252441,-0.9979068040847778,-0.9986302852630615,-1],"type":"VEC4"},{"bufferView":1,"componentType":5126,"count":1948,"max":[0.9973999857902527,0.9975000023841858],"min":[0.0035000001080334187,0.003700000001117587],"type":"VEC2"},{"bufferView":0,"byteOffset":24,"componentType":5125,"count":7878,"max":[1947],"min":[0],"type":"SCALAR"},{"bufferView":2,"byteOffset":46848,"componentType":5126,"count":1521,"max":[27.829601287841797,33.94770050048828,49.50809860229492],"min":[0,10.294898986816406,8.572199821472168],"type":"VEC3"},{"bufferView":2,"byteOffset":65100,"componentType":5126,"count":1521,"max":[0.9991726875305176,0.9940258264541626,0.9993458390235901],"min":[-0.9989614486694336,-0.9988274574279785,-1],"type":"VEC3"},{"bufferView":3,"byteOffset":31232,"componentType":5126,"count":1521,"max":[0.9992029666900635,0.9996981620788574,0.9983957409858704,1],"min":[-0.9990299344062805,-0.9991278648376465,-0.9974486231803894,-1],"type":"VEC4"},{"bufferView":1,"byteOffset":15584,"componentType":5126,"count":1521,"max":[0.996399998664856,0.9940000176429749],"min":[0.004600000102072954,0.003100000089034438],"type":"VEC2"},{"bufferView":0,"byteOffset":31536,"componentType":5125,"count":5220,"max":[1520],"min":[0],"type":"SCALAR"}],"asset":{"extras":{"author":"goblin165cm (https://sketchfab.com/goblin165cm)","license":"CC-BY-4.0 (http://creativecommons.org/licenses/by/4.0/)","source":"https://sketchfab.com/models/ccc023590bfb4789af9322864e42d1ab","title":"Halloween little witch"},"generator":"Sketchfab-3.19.6","version":"2.0"},"bufferViews":[{"buffer":0,"byteLength":52416,"byteOffset":0,"name":"floatBufferViews","target":34963},{"buffer":0,"byteLength":27752,"byteOffset":52416,"byteStride":8,"name":"floatBufferViews","target":34962},{"buffer":0,"byteLength":83352,"byteOffset":80168,"byteStride":12,"name":"floatBufferViews","target":34962},{"buffer":0,"byteLength":55568,"byteOffset":163520,"byteStride":16,"name":"floatBufferViews","target":34962}],"buffers":[{"byteLength":219088,"uri":"data:application/octet-stream;base64,"}],"images":[{"uri":"data:application/octet-stream;base64,"},{"uri":"data:application/octet-stream;base64,"}],"materials":[{"alphaMode":"BLEND","doubleSided":true,"emissiveFactor":[0,0,0],"name":"01___Default","pbrMetallicRoughness":{"baseColorFactor":[1,1,1,0],"metallicFactor":0,"roughnessFactor":0.6}},{"alphaMode":"BLEND","doubleSided":true,"emissiveFactor":[0,0,0],"name":"04___Default","pbrMetallicRoughness":{"baseColorFactor":[1,1,1,1],"baseColorTexture":{"index":0,"texCoord":0},"metallicFactor":0,"roughnessFactor":0.6}},{"doubleSided":true,"emissiveFactor":[0,0,0],"name":"05___Default","pbrMetallicRoughness":{"baseColorFactor":[1,1,1,1],"baseColorTexture":{"index":1,"texCoord":0},"metallicFactor":0,"roughnessFactor":0.6}}],"meshes":[{"primitives":[{"attributes":{"NORMAL":1,"POSITION":0,"TANGENT":2},"indices":3,"material":0,"mode":4}]},{"primitives":[{"attributes":{"NORMAL":5,"POSITION":4,"TANGENT":6,"TEXCOORD_0":7},"indices":8,"material":1,"mode":4}]},{"primitives":[{"attributes":{"NORMAL":10,"POSITION":9,"TANGENT":11,"TEXCOORD_0":12},"indices":13,"material":2,"mode":4}]}],"nodes":[{"children":[1],"name":"RootNode (gltf orientation matrix)","rotation":[-0.7071067811865475,0,0,0.7071067811865476]},{"children":[2],"name":"RootNode (model correction matrix)"},{"children":[3],"matrix":[1,0,0,0,0,1,0,0,0,0,1,0,-14.145999908447266,-18.46489906311035,-8.848899841308594,1],"name":"03.obj.cleaner.gles"},{"children":[4,5,6],"name":""},{"mesh":0,"name":""},{"mesh":1,"name":""},{"mesh":2,"name":""}],"samplers":[{"magFilter":9729,"minFilter":9987,"wrapS":10497,"wrapT":10497}],"scene":0,"scenes":[{"name":"OSG_Scene","nodes":[0]}],"textures":[{"sampler":0,"source":0},{"sampler":0,"source":1}]}